<svg width="128" height="128" viewBox="0 0 128 128" fill="none" xmlns="http://www.w3.org/2000/svg">
  <rect width="128" height="128" rx="32" fill="url(#bg)"/>
  <path d="M25 43.5C25 32.7304 33.7304 24 44.5 24H83.5C94.2696 24 103 32.7304 103 43.5V84.5C103 95.2696 94.2696 104 83.5 104H44.5C33.7304 104 25 95.2696 25 84.5V43.5Z" fill="url(#panel)" fill-opacity="0.84"/>
  <path d="M43 63C43 51.9543 51.9543 43 63 43H85C85.5523 43 86 43.4477 86 44V50C86 50.5523 85.5523 51 85 51H63C56.3726 51 51 56.3726 51 63C51 69.6274 56.3726 75 63 75H74.5C75.0523 75 75.5 75.4477 75.5 76V82C75.5 82.5523 75.0523 83 74.5 83H63C51.9543 83 43 74.0457 43 63Z" fill="url(#cyan)"/>
  <path d="M57 64.5C57 57.5964 62.5964 52 69.5 52H84.5C85.0523 52 85.5 52.4477 85.5 53V59C85.5 59.5523 85.0523 60 84.5 60H69.5C67.0147 60 65 62.0147 65 64.5C65 66.9853 67.0147 69 69.5 69H91C91.5523 69 92 69.4477 92 70V76C92 76.5523 91.5523 77 91 77H69.5C62.5964 77 57 71.4036 57 64.5Z" fill="url(#green)"/>
  <circle cx="44" cy="88" r="6" fill="#F59E0B"/>
  <defs>
    <linearGradient id="bg" x1="13" y1="9" x2="112" y2="118" gradientUnits="userSpaceOnUse">
      <stop stop-color="#0B2D5C"/>
      <stop offset="0.52" stop-color="#0E6FCE"/>
      <stop offset="1" stop-color="#11B5D8"/>
    </linearGradient>
    <linearGradient id="panel" x1="35" y1="29" x2="93" y2="97" gradientUnits="userSpaceOnUse">
      <stop stop-color="white" stop-opacity="0.38"/>
      <stop offset="1" stop-color="white" stop-opacity="0.14"/>
    </linearGradient>
    <linearGradient id="cyan" x1="42" y1="41" x2="84" y2="84" gradientUnits="userSpaceOnUse">
      <stop stop-color="#77E3FF"/>
      <stop offset="1" stop-color="#12BEE7"/>
    </linearGradient>
    <linearGradient id="green" x1="58" y1="54" x2="94" y2="74" gradientUnits="userSpaceOnUse">
      <stop stop-color="#67F2C7"/>
      <stop offset="1" stop-color="#16A34A"/>
    </linearGradient>
  </defs>
</svg>
